<?xml version="1.0" encoding="UTF-8"?>
<svg version="1.1" xmlns="http://www.w3.org/2000/svg" width="500" height="500">
<path d="M0 0 C165 0 330 0 500 0 C500 165 500 330 500 500 C335 500 170 500 0 500 C0 335 0 170 0 0 Z " fill="#FEFEFE" transform="translate(0,0)"/>
<path d="M0 0 C1.5 1.25 1.5 1.25 3 3 C3 4.32 3 5.64 3 7 C3.96113866 8.36161311 4.95884159 9.69855198 6 11 C6 11.66 6 12.32 6 13 C7.37865234 12.50886719 7.37865234 12.50886719 8.78515625 12.0078125 C13.94760805 10.53282627 19.11212732 10.78491562 24.4375 10.875 C25.96407227 10.88853516 25.96407227 10.88853516 27.52148438 10.90234375 C30.01457156 10.92575302 32.50715859 10.958543 35 11 C35 12.32 35 13.64 35 15 C30.38625305 17.08505872 25.8556214 18.88720265 20.87890625 19.875 C13.32944806 20.9821688 13.32944806 20.9821688 7.30859375 25.03125 C6.33611912 27.45228601 6.33611912 27.45228601 6 31 C6.66 31 7.32 31 8 31 C7.67 32.98 7.34 34.96 7 37 C6.01 37.33 5.02 37.66 4 38 C3.00461495 40.43414219 2.1409736 42.82330284 1.3125 45.3125 C-1.72393151 53.7196443 -1.72393151 53.7196443 -6.25 55.9375 C-10 57 -10 57 -12 57 C-11.41160201 51.77881324 -10.20372065 47.18750198 -8.4375 42.25 C-6.60195922 37.25639697 -6.60195922 37.25639697 -6 32 C-5.34 32 -4.68 32 -4 32 C-3.67 29.69 -3.34 27.38 -3 25 C-4.13695312 25.144375 -5.27390625 25.28875 -6.4453125 25.4375 C-16.03329553 26.60656292 -25.32830058 27.27988841 -35 27 C-36.56272189 31.39253773 -36.56272189 31.39253773 -37 36 C-36.01 36 -35.02 36 -34 36 C-24.93457157 52.38667704 -20.01670247 68.9155384 -24 87.875 C-27.66626889 100.55275223 -33.33463415 111.90122456 -43 121 C-43.68578125 121.70382812 -44.3715625 122.40765625 -45.078125 123.1328125 C-57.8006046 135.52545004 -74.00226664 139.51845393 -91.28808594 139.34741211 C-108.95839275 138.86748176 -124.76247262 131.80618571 -137 119 C-137.94746094 118.08154297 -137.94746094 118.08154297 -138.9140625 117.14453125 C-146.81256771 108.98506221 -151.10794064 97.49163828 -155 87 C-155.66 87 -156.32 87 -157 87 C-160.78331238 97.71443871 -160.78331238 97.71443871 -158.875 108.5625 C-157.66029962 110.77104615 -156.39086647 112.89879816 -155 115 C-158.49980923 113.44126143 -160.42885583 111.85586661 -162.21875 108.35546875 C-165.0342338 99.8667851 -163.56908023 91.77383364 -159.75 83.9375 C-155.70153417 76.17047824 -148.62022083 64.87340694 -140 62 C-140 61.34 -140 60.68 -140 60 C-140.99 60 -141.98 60 -143 60 C-145.6875 57.5 -145.6875 57.5 -148 55 C-151.3640607 58.3640607 -150.85104545 63.12583444 -151.33984375 67.71484375 C-151.99466796 70.97346598 -152.38446207 72.06863548 -155 74 C-156.05264987 59.40910323 -150.65672614 44.79856124 -141.86328125 33.17578125 C-139.66549272 30.67114615 -137.38797599 28.32310737 -135 26 C-134.31292969 25.29230469 -133.62585938 24.58460938 -132.91796875 23.85546875 C-121.53602813 12.8113965 -105.25182733 7.01089196 -89.5625 6.5 C-73.56404562 7.03383789 -57.2402705 12.21615856 -46 24 C-45.01 24.66 -44.02 25.32 -43 26 C-43.3609375 25.37351563 -43.721875 24.74703125 -44.09375 24.1015625 C-44.5578125 23.28429687 -45.021875 22.46703125 -45.5 21.625 C-46.19609375 20.40683594 -46.19609375 20.40683594 -46.90625 19.1640625 C-48 17 -48 17 -48 15 C-45.3125 14.625 -45.3125 14.625 -42 15 C-40.86846049 16.55182561 -39.73764185 18.10421429 -38.6171875 19.6640625 C-35.17636129 22.50648416 -30.19861889 21.33789183 -26 21 C-24.68 21 -23.36 21 -22 21 C-21.319375 20.401875 -20.63875 19.80375 -19.9375 19.1875 C-15.70349651 16.03451868 -11.08747041 15.17608773 -6 14 C-6.350625 13.4225 -6.70125 12.845 -7.0625 12.25 C-8 10 -8 10 -7.84765625 7.953125 C-6.78938616 5.51471465 -5.50463268 4.40370614 -3.4375 2.75 C-2.79683594 2.22921875 -2.15617188 1.7084375 -1.49609375 1.171875 C-1.00238281 0.78515625 -0.50867188 0.3984375 0 0 Z " fill="#F9F9F9" transform="translate(333,179)"/>
<path d="M0 0 C9.73036936 8.80566903 12.36855831 23.32644678 13.28125 35.86328125 C13.68039544 52.14508896 8.47139854 69.16341917 -2.4375 81.5625 C-3.93509558 83.06518944 -5.45526195 84.54581556 -7 86 C-7.68578125 86.70382812 -8.3715625 87.40765625 -9.078125 88.1328125 C-21.8006046 100.52545004 -38.00226664 104.51845393 -55.28808594 104.34741211 C-72.95839275 103.86748176 -88.76247262 96.80618571 -101 84 C-101.63164062 83.38769531 -102.26328125 82.77539062 -102.9140625 82.14453125 C-109.76818783 75.06394803 -116.69130957 63.09987989 -117.125 53.125 C-117.08375 52.42375 -117.0425 51.7225 -117 51 C-116.34 51 -115.68 51 -115 51 C-113.68373308 54.61973402 -113 57.09567131 -113 61 C-112.34 61 -111.68 61 -111 61 C-110.7525 60.46375 -110.505 59.9275 -110.25 59.375 C-109 57 -109 57 -106.875 54.5625 C-104.53431388 51.26196418 -104.98801298 48.5013393 -105.25 44.5625 C-105.49273886 38.66933995 -105.49273886 38.66933995 -103.234375 35.6015625 C-101.22978439 33.88434327 -99.24793504 32.37987084 -97 31 C-91.76039232 32.38695497 -89.02742362 35.72272259 -86 40 C-85.30686092 41.65583225 -84.63525576 43.32110979 -84 45 C-81.97959252 47.27191416 -81.97959252 47.27191416 -80 49 C-81.57199337 52.85852918 -83.82889891 55.32218131 -87 58 C-89.30988315 58.74386068 -91.64315944 59.42190703 -94 60 C-94.66 60.66 -95.32 61.32 -96 62 C-97.85483454 62.60713803 -99.73421385 63.14131052 -101.625 63.625 C-103.12933594 64.01558594 -103.12933594 64.01558594 -104.6640625 64.4140625 C-105.82035156 64.70410156 -105.82035156 64.70410156 -107 65 C-107.75649032 66.77905424 -107.75649032 66.77905424 -108 69 C-106.41795351 72.27114876 -104.1651367 75.08932094 -102 78 C-101.29875 78.99 -100.5975 79.98 -99.875 81 C-88.24450274 94.3825273 -72.03879335 99.86123856 -54.91796875 101.25 C-38.16701737 101.63342664 -22.78440047 95.68105438 -10 85 C-6.56169867 81.69066376 -3.30106623 78.19531412 -1 74 C-1.15993574 71.24103884 -1.15993574 71.24103884 -2 69 C-4.64 69.33 -7.28 69.66 -10 70 C-10 70.66 -10 71.32 -10 72 C-10.66 72 -11.32 72 -12 72 C-12.103125 70.783125 -12.20625 69.56625 -12.3125 68.3125 C-12.78154256 64.58658442 -13.63218772 62.00530021 -16 59 C-17.485 58.505 -17.485 58.505 -19 58 C-19.33 58.99 -19.66 59.98 -20 61 C-23.3 61 -26.6 61 -30 61 C-30.495 56.545 -30.495 56.545 -31 52 C-31.11320856 57.08303686 -31.11320856 57.08303686 -30 62 C-28.515 62.495 -28.515 62.495 -27 63 C-27.5 64.8125 -27.5 64.8125 -29 67 C-30.80859375 67.6875 -30.80859375 67.6875 -32.9375 68.3125 C-36.04608171 69.28182458 -36.04608171 69.28182458 -38.05078125 71.70703125 C-38.28152344 72.33996094 -38.51226562 72.97289062 -38.75 73.625 C-39.1625 74.73875 -39.575 75.8525 -40 77 C-41.9375 77.6875 -41.9375 77.6875 -44 78 C-45.37310707 79.29233607 -46.71034824 80.62437146 -48 82 C-50.73247348 83.36623674 -52.98198902 83.128426 -56 83 C-57.86916794 81.13083206 -57.21688008 78.12555426 -57.25 75.625 C-57.27578125 74.46226562 -57.3015625 73.29953125 -57.328125 72.1015625 C-56.96126336 68.63384653 -56.49149217 68.19352746 -54 66 C-52.98317174 62.82010071 -52.96098322 60.17536251 -54 57 C-56.43101417 54.86639714 -58.87620071 53.34586543 -61.71484375 51.80078125 C-64 50 -64 50 -64.87109375 46.98828125 C-65.04502986 42.956126 -64.40870784 41.25884002 -62 38 C-59.70022529 36.84597636 -57.36586246 35.93399012 -54.96484375 35.01171875 C-52.69590491 34.11864843 -52.69590491 34.11864843 -51.9375 31.25 C-51.958125 30.5075 -51.97875 29.765 -52 29 C-50.02 29.33 -48.04 29.66 -46 30 C-46.185625 29.4225 -46.37125 28.845 -46.5625 28.25 C-47.04023546 25.79307475 -46.75729364 24.35602466 -46 22 C-47.485 21.505 -47.485 21.505 -49 21 C-48.67 20.34 -48.34 19.68 -48 19 C-47.01 19 -46.02 19 -45 19 C-45 18.34 -45 17.68 -45 17 C-44.34 17 -43.68 17 -43 17 C-42.505 20.96 -42.505 20.96 -42 25 C-40.02463255 24.65213292 -40.02463255 24.65213292 -38 24 C-37.67 23.34 -37.34 22.68 -37 22 C-36.01 21.67 -35.02 21.34 -34 21 C-34.99 21 -35.98 21 -37 21 C-36.67 19.35 -36.34 17.7 -36 16 C-35.071875 15.71125 -34.14375 15.4225 -33.1875 15.125 C-29.90208333 14.1125 -29.90208333 14.1125 -27 12 C-23.625 11.5625 -23.625 11.5625 -20 12 C-16.75115506 14.59907595 -14.57260188 17.13997719 -13 21 C-14.65 20.67 -16.3 20.34 -18 20 C-18 20.99 -18 21.98 -18 23 C-16.453125 22.7525 -16.453125 22.7525 -14.875 22.5 C-11.51755674 22.06678152 -8.37663843 21.91764297 -5 22 C-5 22.66 -5 23.32 -5 24 C-4.21625 23.79375 -3.4325 23.5875 -2.625 23.375 C-1.75875 23.25125 -0.8925 23.1275 0 23 C0.99 23.99 0.99 23.99 2 25 C2.433125 24.505 2.86625 24.01 3.3125 23.5 C5 22 5 22 8 22 C7.67 20.35 7.34 18.7 7 17 C5.53984709 17.28241641 4.08190207 17.57626614 2.625 17.875 C1.81289063 18.03742188 1.00078125 18.19984375 0.1640625 18.3671875 C-2.18673923 18.86658932 -2.18673923 18.86658932 -4 21 C-3.6875 19.125 -3.6875 19.125 -3 17 C-0.08235 15.0549 1.62537285 14.54723683 5 14 C4.55527344 13.24074219 4.11054688 12.48148438 3.65234375 11.69921875 C3.08644531 10.70535156 2.52054687 9.71148437 1.9375 8.6875 C1.36902344 7.70136719 0.80054688 6.71523437 0.21484375 5.69921875 C-1 3 -1 3 0 0 Z " fill="#030303" transform="translate(297,214)"/>
<path d="M0 0 C1.5 1.25 1.5 1.25 3 3 C3 4.32 3 5.64 3 7 C3.96113866 8.36161311 4.95884159 9.69855198 6 11 C6 11.66 6 12.32 6 13 C7.37865234 12.50886719 7.37865234 12.50886719 8.78515625 12.0078125 C13.94760805 10.53282627 19.11212732 10.78491562 24.4375 10.875 C25.96407227 10.88853516 25.96407227 10.88853516 27.52148438 10.90234375 C30.01457156 10.92575302 32.50715859 10.958543 35 11 C35 12.32 35 13.64 35 15 C30.38625305 17.08505872 25.8556214 18.88720265 20.87890625 19.875 C13.32944806 20.9821688 13.32944806 20.9821688 7.30859375 25.03125 C6.33611912 27.45228601 6.33611912 27.45228601 6 31 C6.66 31 7.32 31 8 31 C7.67 32.98 7.34 34.96 7 37 C6.01 37.33 5.02 37.66 4 38 C3.00461495 40.43414219 2.1409736 42.82330284 1.3125 45.3125 C-1.72393151 53.7196443 -1.72393151 53.7196443 -6.25 55.9375 C-10 57 -10 57 -12 57 C-11.41160201 51.77881324 -10.20372065 47.18750198 -8.4375 42.25 C-6.60195922 37.25639697 -6.60195922 37.25639697 -6 32 C-5.34 32 -4.68 32 -4 32 C-3.67 29.69 -3.34 27.38 -3 25 C-4.13695312 25.144375 -5.27390625 25.28875 -6.4453125 25.4375 C-16.03329553 26.60656292 -25.32830058 27.27988841 -35 27 C-36.38683699 31.15234959 -36.38683699 31.15234959 -37.75 35.3125 C-39 37 -39 37 -42.125 37.75 C-43.07375 37.8325 -44.0225 37.915 -45 38 C-44.49287967 34.28111761 -43.88391785 31.26545761 -42 28 C-42.80630859 27.88398438 -42.80630859 27.88398438 -43.62890625 27.765625 C-46.9072093 26.70706257 -49.18077626 24.80817199 -51.9375 22.75 C-62.88002222 14.87980132 -75.49678358 10.50897395 -89 11 C-87.329375 11.1546875 -87.329375 11.1546875 -85.625 11.3125 C-84.42875 11.539375 -83.2325 11.76625 -82 12 C-81.01 13.485 -81.01 13.485 -80 15 C-79.01 15.33 -78.02 15.66 -77 16 C-76.3162955 17.32467746 -75.65035814 18.65863633 -75 20 C-74.01 20.66 -73.02 21.32 -72 22 C-72.804375 22.4125 -73.60875 22.825 -74.4375 23.25 C-77.14973801 24.71418298 -77.14973801 24.71418298 -77.66015625 27.109375 C-77.77230469 27.73328125 -77.88445312 28.3571875 -78 29 C-79.07314453 29.25523437 -79.07314453 29.25523437 -80.16796875 29.515625 C-87.87648843 31.39040081 -95.44013737 33.59791462 -103 36 C-103 34.02 -103 32.04 -103 30 C-102.34 30 -101.68 30 -101 30 C-101.495 28.515 -101.495 28.515 -102 27 C-101.34 27 -100.68 27 -100 27 C-100.22860058 25.53815942 -100.48370392 24.08044581 -100.75 22.625 C-100.88921875 21.81289062 -101.0284375 21.00078125 -101.171875 20.1640625 C-101.81749261 17.82290908 -101.81749261 17.82290908 -104.078125 16.7109375 C-104.71234375 16.47632813 -105.3465625 16.24171875 -106 16 C-106 15.01 -106 14.02 -106 13 C-107.98 13.33 -109.96 13.66 -112 14 C-111.690625 15.175625 -111.38125 16.35125 -111.0625 17.5625 C-110.1069599 21.36432975 -109.48598842 25.11209261 -109 29 C-109.66 29 -110.32 29 -111 29 C-111 29.66 -111 30.32 -111 31 C-111.99 30.67 -112.98 30.34 -114 30 C-113.67 27.36 -113.34 24.72 -113 22 C-114.65 21.67 -116.3 21.34 -118 21 C-118.66 22.65 -119.32 24.3 -120 26 C-120.99 26 -121.98 26 -123 26 C-123.66 25.34 -124.32 24.68 -125 24 C-125.99 24.66 -126.98 25.32 -128 26 C-127.39009109 29.55780196 -126.4216319 32.6828589 -125 36 C-121.9789286 33.9859524 -120.39332574 32.36720387 -119 29 C-117.68 29.66 -116.36 30.32 -115 31 C-115 32.32 -115 33.64 -115 35 C-114.01 35 -113.02 35 -112 35 C-111.69140625 37.28125 -111.69140625 37.28125 -112 40 C-114.08984375 41.84375 -114.08984375 41.84375 -116.9375 43.5 C-117.93523437 44.09039062 -118.93296875 44.68078125 -119.9609375 45.2890625 C-120.96382812 45.85367188 -121.96671875 46.41828125 -123 47 C-123.87914062 47.50273437 -124.75828125 48.00546875 -125.6640625 48.5234375 C-128.41550316 50.07392361 -131.1751381 51.58756905 -134 53 C-134.33 52.34 -134.66 51.68 -135 51 C-137.32156597 50.59270772 -139.6568787 50.25561323 -142 50 C-142.495 52.475 -142.495 52.475 -143 55 C-141.68 55 -140.36 55 -139 55 C-139.99 57.475 -139.99 57.475 -141 60 C-143 60 -143 60 -145.625 57.5 C-146.40875 56.675 -147.1925 55.85 -148 55 C-151.3640607 58.3640607 -150.85104545 63.12583444 -151.33984375 67.71484375 C-151.99466796 70.97346598 -152.38446207 72.06863548 -155 74 C-156.05264987 59.40910323 -150.65672614 44.79856124 -141.86328125 33.17578125 C-139.66549272 30.67114615 -137.38797599 28.32310737 -135 26 C-134.31292969 25.29230469 -133.62585938 24.58460938 -132.91796875 23.85546875 C-121.53602813 12.8113965 -105.25182733 7.01089196 -89.5625 6.5 C-73.56404562 7.03383789 -57.2402705 12.21615856 -46 24 C-45.01 24.66 -44.02 25.32 -43 26 C-43.3609375 25.37351563 -43.721875 24.74703125 -44.09375 24.1015625 C-44.5578125 23.28429687 -45.021875 22.46703125 -45.5 21.625 C-46.19609375 20.40683594 -46.19609375 20.40683594 -46.90625 19.1640625 C-48 17 -48 17 -48 15 C-45.3125 14.625 -45.3125 14.625 -42 15 C-40.86846049 16.55182561 -39.73764185 18.10421429 -38.6171875 19.6640625 C-35.17636129 22.50648416 -30.19861889 21.33789183 -26 21 C-24.68 21 -23.36 21 -22 21 C-21.319375 20.401875 -20.63875 19.80375 -19.9375 19.1875 C-15.70349651 16.03451868 -11.08747041 15.17608773 -6 14 C-6.350625 13.4225 -6.70125 12.845 -7.0625 12.25 C-8 10 -8 10 -7.84765625 7.953125 C-6.78938616 5.51471465 -5.50463268 4.40370614 -3.4375 2.75 C-2.79683594 2.22921875 -2.15617188 1.7084375 -1.49609375 1.171875 C-1.00238281 0.78515625 -0.50867188 0.3984375 0 0 Z " fill="#090909" transform="translate(333,179)"/>
<path d="M0 0 C0 0.99 0 1.98 0 3 C0.639375 3.144375 1.27875 3.28875 1.9375 3.4375 C4 4 4 4 5 5 C5.25996373 6.45001991 5.45919978 7.91122093 5.625 9.375 C5.72039062 10.16648438 5.81578125 10.95796875 5.9140625 11.7734375 C6 14 6 14 5 17 C4.34 17 3.68 17 3 17 C3.495 19.475 3.495 19.475 4 22 C5.00160156 21.65066406 6.00320312 21.30132812 7.03515625 20.94140625 C8.37749252 20.48144487 9.7199468 20.02182781 11.0625 19.5625 C11.71927734 19.33240234 12.37605469 19.10230469 13.05273438 18.86523438 C17.37626855 17.39565872 21.46079726 16.51353789 26 16 C26 16.33 26 16.66 26 17 C32.76793416 16.36532896 32.76793416 16.36532896 39.5 15.4375 C44.01520441 14.87309945 48.45650842 14.91772349 53 15 C53 15.33 53 15.66 53 16 C52.31188232 16.1451001 51.62376465 16.2902002 50.91479492 16.43969727 C20.36372142 22.96474974 -9.00157632 33.18482976 -33 54 C-33.55993652 54.48291504 -34.11987305 54.96583008 -34.69677734 55.46337891 C-43.70004188 63.40119972 -52.62703745 73.74200836 -54.2734375 86.04296875 C-54.58044268 92.5255013 -52.53870336 96.65403028 -49 102 C-52.49980923 100.44126143 -54.42885583 98.85586661 -56.21875 95.35546875 C-59.0342338 86.8667851 -57.56908023 78.77383364 -53.75 70.9375 C-49.70153417 63.17047824 -42.62022083 51.87340694 -34 49 C-34.33 48.01 -34.66 47.02 -35 46 C-34.67 45.01 -34.34 44.02 -34 43 C-35.32 42.67 -36.64 42.34 -38 42 C-37.67 40.35 -37.34 38.7 -37 37 C-33.35014884 35.64820327 -31.47171347 36.44686503 -28 38 C-25.44610732 38 -24.34277359 37.15696253 -22.15625 35.84765625 C-21.40472656 35.40099609 -20.65320313 34.95433594 -19.87890625 34.49414062 C-19.09386719 34.02169922 -18.30882812 33.54925781 -17.5 33.0625 C-15.94819229 32.13625681 -14.39612121 31.2104547 -12.84375 30.28515625 C-12.15474609 29.87144775 -11.46574219 29.45773926 -10.75585938 29.03149414 C-9.52860471 28.31053322 -8.27308717 27.63654358 -7 27 C-6.34444881 24.47266765 -6.34444881 24.47266765 -6 22 C-6.99 22 -7.98 22 -9 22 C-9.66 20.35 -10.32 18.7 -11 17 C-11.66 17 -12.32 17 -13 17 C-13.474375 17.804375 -13.94875 18.60875 -14.4375 19.4375 C-16 22 -16 22 -19 23 C-23 17.78787879 -23 17.78787879 -23 14.25 C-22 12 -22 12 -19.9375 10.6875 C-19.298125 10.460625 -18.65875 10.23375 -18 10 C-17.505 11.485 -17.505 11.485 -17 13 C-16.01 13 -15.02 13 -14 13 C-13.67 11.35 -13.34 9.7 -13 8 C-9 8 -9 8 -7 9 C-7 11.64 -7 14.28 -7 17 C-6.34 17.33 -5.68 17.66 -5 18 C-5 17.34 -5 16.68 -5 16 C-4.34 16 -3.68 16 -3 16 C-3.2165625 15.41992188 -3.433125 14.83984375 -3.65625 14.2421875 C-5.28435049 9.67446113 -6.37861182 5.9219536 -6 1 C-4 0 -4 0 0 0 Z " fill="#F2F2F2" transform="translate(227,192)"/>
<path d="M0 0 C5.23960768 1.38695497 7.97257638 4.72272259 11 9 C11.69313908 10.65583225 12.36474424 12.32110979 13 14 C15.02040748 16.27191416 15.02040748 16.27191416 17 18 C15.42800663 21.85852918 13.17110109 24.32218131 10 27 C7.69011685 27.74386068 5.35684056 28.42190703 3 29 C2.34 29.66 1.68 30.32 1 31 C-0.85483454 31.60713803 -2.73421385 32.14131052 -4.625 32.625 C-6.12933594 33.01558594 -6.12933594 33.01558594 -7.6640625 33.4140625 C-8.82035156 33.70410156 -8.82035156 33.70410156 -10 34 C-10.75649032 35.77905424 -10.75649032 35.77905424 -11 38 C-9.41795351 41.27114876 -7.1651367 44.08932094 -5 47 C-4.29875 47.99 -3.5975 48.98 -2.875 50 C8.75549726 63.3825273 24.96120665 68.86123856 42.08203125 70.25 C58.96789112 70.63651468 74.04305653 64.55815799 87 54 C89.0264181 51.92117453 90.86893639 49.83434212 92.6328125 47.53125 C94 46 94 46 97 45 C96.25546489 51.35832985 89.63538802 56.02160758 85 60 C79.41913008 64.12984374 73.56910753 67.69504999 67 70 C65.83404297 70.41572266 65.83404297 70.41572266 64.64453125 70.83984375 C46.84000627 76.28918355 28.13151556 73.58041069 11.79980469 65.32617188 C5.69418409 62.05372433 0.78796558 58.01045468 -4 53 C-4.63164062 52.38769531 -5.26328125 51.77539062 -5.9140625 51.14453125 C-12.76818783 44.06394803 -19.69130957 32.09987989 -20.125 22.125 C-20.08375 21.42375 -20.0425 20.7225 -20 20 C-19.34 20 -18.68 20 -18 20 C-16.68373308 23.61973402 -16 26.09567131 -16 30 C-15.34 30 -14.68 30 -14 30 C-13.62875 29.195625 -13.62875 29.195625 -13.25 28.375 C-12 26 -12 26 -9.875 23.5625 C-7.53431388 20.26196418 -7.98801298 17.5013393 -8.25 13.5625 C-8.49273886 7.66933995 -8.49273886 7.66933995 -6.234375 4.6015625 C-4.22978439 2.88434327 -2.24793504 1.37987084 0 0 Z " fill="#070707" transform="translate(200,245)"/>
<path d="M0 0 C0 0.33 0 0.66 0 1 C-0.68811768 1.1451001 -1.37623535 1.2902002 -2.08520508 1.43969727 C-32.63627858 7.96474974 -62.00157632 18.18482976 -86 39 C-86.55993652 39.48291504 -87.11987305 39.96583008 -87.69677734 40.46337891 C-96.70004188 48.40119972 -105.62703745 58.74200836 -107.2734375 71.04296875 C-107.58044268 77.5255013 -105.53870336 81.65403028 -102 87 C-105.49980923 85.44126143 -107.42885583 83.85586661 -109.21875 80.35546875 C-112.03319327 71.8699223 -110.57273073 63.77047031 -106.75 55.9375 C-94.10922604 31.95029816 -66.78185155 15.59947653 -41.6328125 7.5625 C-37.4461156 6.28286985 -33.23184326 5.12000664 -29 4 C-27.84757812 3.690625 -26.69515625 3.38125 -25.5078125 3.0625 C-16.88823791 0.82699936 -8.89668719 -0.16110701 0 0 Z " fill="#0E0E0E" transform="translate(280,207)"/>
<path d="M0 0 C-1.52845814 3.91391305 -3.90884997 5.76645866 -7.1875 8.3125 C-22.4441263 20.52575756 -33.42855739 36.83041734 -38 56 C-38.41378906 57.41732422 -38.41378906 57.41732422 -38.8359375 58.86328125 C-45.1839288 82.24601983 -39.48663464 107.76940683 -27.640625 128.46875 C-24.75657708 132.91842393 -21.41311164 136.95124813 -18 141 C-17.34773438 141.84175781 -16.69546875 142.68351563 -16.0234375 143.55078125 C-14.0756356 145.9084488 -12.07629869 147.83514612 -9.75 149.8125 C-9.04359375 150.41707031 -8.3371875 151.02164063 -7.609375 151.64453125 C-7.07828125 152.09183594 -6.5471875 152.53914062 -6 153 C-6.33 153.66 -6.66 154.32 -7 155 C-21.30513234 148.33475153 -32.13037295 131.17782664 -38 117 C-45.60467311 95.87385839 -48.02557 69.40982803 -40 48 C-39.34644531 46.19982422 -39.34644531 46.19982422 -38.6796875 44.36328125 C-33.7146676 31.81507521 -26.29365737 21.68019285 -17 12 C-16.37996094 11.34 -15.75992188 10.68 -15.12109375 10 C-5.48747306 0 -5.48747306 0 0 0 Z " fill="#141414" transform="translate(193,169)"/>
<path d="M0 0 C3.53248962 2.19799354 5.44305039 4.17713265 7 8 C7.23046875 10.2890625 7.23046875 10.2890625 7.1875 12.625 C7.18105469 13.40101563 7.17460937 14.17703125 7.16796875 14.9765625 C7 17 7 17 6 19 C8.97 19 11.94 19 15 19 C15.042721 20.66611905 15.04063832 22.33382885 15 24 C14.67 24.33 14.34 24.66 14 25 C11.61103225 24.90765835 9.25567773 24.7601326 6.875 24.5625 C2.93726473 24.25449892 -0.83311436 23.99241429 -4.78125 24.171875 C-8 24 -8 24 -9.9609375 22.57421875 C-10.42757812 21.95160156 -10.89421875 21.32898438 -11.375 20.6875 C-11.85710937 20.07261719 -12.33921875 19.45773438 -12.8359375 18.82421875 C-15.30081277 14.96147797 -15.38560309 11.47299581 -15 7 C-11.1322904 0.78403814 -7.22889473 -0.76093629 0 0 Z " fill="#0A0A0A" transform="translate(208,151)"/>
<path d="M0 0 C2.83880927 4.25821391 2.51165313 8.00338745 2 13 C0.73227896 16.13594153 -0.52051364 17.56546548 -3 19.8125 C-7.59317825 21.63063306 -12.12022573 21.23074239 -17 21 C-17.50509639 17.91747911 -18.00317999 14.83386475 -18.5 11.75 C-18.64308594 10.87730469 -18.78617188 10.00460937 -18.93359375 9.10546875 C-19.06894531 8.26113281 -19.20429688 7.41679687 -19.34375 6.546875 C-19.46943359 5.77182617 -19.59511719 4.99677734 -19.72460938 4.19824219 C-20 2 -20 2 -20 -2 C-5.55102041 -4.40816327 -5.55102041 -4.40816327 0 0 Z " fill="#090909" transform="translate(262,331)"/>
<path d="M0 0 C1.92128781 0.56792784 3.83691616 1.15502177 5.75 1.75 C6.81734375 2.07484375 7.8846875 2.3996875 8.984375 2.734375 C12.18037703 4.07570228 13.88783301 5.26660743 16 8 C15.75 11.25 15.75 11.25 15 14 C13.68 14.33 12.36 14.66 11 15 C11.99 16.485 11.99 16.485 13 18 C12.75 21.625 12.75 21.625 12 25 C8.51933065 26.74033467 4.80538011 26.46436493 1 26 C-1.89453715 24.90799175 -4.31031353 23.56490849 -7 22 C-3.25 3.25 -3.25 3.25 0 0 Z " fill="#0B0B0B" transform="translate(191,320)"/>
<path d="M0 0 C0.66 0 1.32 0 2 0 C3.33203125 1.7578125 3.33203125 1.7578125 4.8125 4.125 C13.61951214 17.61927636 25.96333637 26.97874055 41.91235352 30.40600586 C59.60809598 33.85161587 76.81630069 31.81479868 92.18652344 21.83813477 C97.41159221 18.2774423 101.78550464 14.55467788 105.6328125 9.53125 C107 8 107 8 110 7 C109.25546489 13.35832985 102.63538802 18.02160758 98 22 C92.41913008 26.12984374 86.56910753 29.69504999 80 32 C79.22269531 32.27714844 78.44539063 32.55429687 77.64453125 32.83984375 C59.84000627 38.28918355 41.13151556 35.58041069 24.79980469 27.32617188 C18.70009904 24.05689458 13.76817122 20.02329477 9 15 C8.32195312 14.29488281 7.64390625 13.58976562 6.9453125 12.86328125 C3.5327421 9.14626992 0.9747617 5.64649811 -1 1 C-0.67 0.67 -0.34 0.34 0 0 Z " fill="#0C0C0C" transform="translate(187,283)"/>
<path d="M0 0 C2.31 0 4.62 0 7 0 C7.10469338 5.75813575 6.74016701 11.29014022 6 17 C7.94603274 17.59070014 7.94603274 17.59070014 10 18 C12.01481734 15.98518266 11.7214027 12.20923137 12.0625 9.4375 C12.15337891 8.72658203 12.24425781 8.01566406 12.33789062 7.28320312 C12.56239503 5.52261597 12.78168397 3.76136522 13 2 C15.31 2 17.62 2 20 2 C19.38985576 17.16944809 19.38985576 17.16944809 16 23 C13.44183084 24.27908458 11.48152006 24.23974681 8.625 24.3125 C7.66851562 24.34988281 6.71203125 24.38726562 5.7265625 24.42578125 C3 24 3 24 0.66796875 22.41015625 C-1.57630404 19.16726091 -1.43448905 17.03706251 -1.3125 13.125 C-1.28800781 11.93132812 -1.26351562 10.73765625 -1.23828125 9.5078125 C-1.01875946 6.27616386 -0.59826016 3.18099307 0 0 Z " fill="#0A0A0A" transform="translate(215,328)"/>
<path d="M0 0 C6.12321914 0 11.11376326 0.14382011 17 1 C17 2.98 17 4.96 17 7 C13.7 6.67 10.4 6.34 7 6 C7 6.99 7 7.98 7 9 C9.31 9.33 11.62 9.66 14 10 C14 11.65 14 13.3 14 15 C11.36 15 8.72 15 6 15 C6 15.99 6 16.98 6 18 C8.97 18 11.94 18 15 18 C15 19.98 15 21.96 15 24 C13.66679321 24.02777514 12.33340287 24.04673341 11 24.0625 C10.2575 24.07410156 9.515 24.08570313 8.75 24.09765625 C5.15030427 23.96982615 1.57414991 23.44676874 -2 23 C-1.34 15.41 -0.68 7.82 0 0 Z " fill="#111111" transform="translate(254,142)"/>
<path d="M0 0 C2.64 0 5.28 0 8 0 C8.61188403 5.13545529 9.09767894 10.26619998 9.25 15.4375 C9.27578125 16.24058594 9.3015625 17.04367188 9.328125 17.87109375 C8.9147647 20.55301473 8.13276317 21.37052908 6 23 C3.28107436 23.90630855 1.38656013 24.22201578 -1.4375 24.3125 C-2.58025391 24.36857422 -2.58025391 24.36857422 -3.74609375 24.42578125 C-7.07651053 23.79663839 -8.0518093 22.78009783 -10 20 C-10.75847796 16.93978042 -11.01459704 13.88870618 -11.25 10.75 C-11.32734375 9.90953125 -11.4046875 9.0690625 -11.484375 8.203125 C-11.67222214 6.13680648 -11.83826339 4.06852605 -12 2 C-9.69 2 -7.38 2 -5 2 C-4.34 6.95 -3.68 11.9 -3 17 C-1.68 17.33 -0.36 17.66 1 18 C1.33 17.67 1.66 17.34 2 17 C1.93487013 15.45464593 1.79682667 13.91215214 1.625 12.375 C1.52574219 11.4778125 1.42648438 10.580625 1.32421875 9.65625 C0.93026035 6.428639 0.48916779 3.21453118 0 0 Z " fill="#080808" transform="translate(234,142)"/>
<path d="M0 0 C1.671875 0.93359375 1.671875 0.93359375 2.671875 3.93359375 C0.361875 5.58359375 -1.948125 7.23359375 -4.328125 8.93359375 C-0.70485761 10.14134955 0.31333869 9.47670503 3.671875 7.93359375 C4.331875 9.58359375 4.991875 11.23359375 5.671875 12.93359375 C4.434375 13.61421875 4.434375 13.61421875 3.171875 14.30859375 C2.346875 14.84484375 1.521875 15.38109375 0.671875 15.93359375 C0.671875 16.59359375 0.671875 17.25359375 0.671875 17.93359375 C3.7550101 16.73459677 6.73466992 15.45658898 9.671875 13.93359375 C10.331875 15.58359375 10.991875 17.23359375 11.671875 18.93359375 C9.93382159 20.30305997 8.18096267 21.65375329 6.421875 22.99609375 C5.44734375 23.75019531 4.4728125 24.50429688 3.46875 25.28125 C0.671875 26.93359375 0.671875 26.93359375 -1.46875 27 C-4.17524828 25.44774363 -5.2322731 23.47076487 -6.828125 20.80859375 C-7.42753906 19.81988281 -8.02695312 18.83117187 -8.64453125 17.8125 C-9.20011719 16.86246094 -9.75570313 15.91242188 -10.328125 14.93359375 C-10.77027344 14.17949219 -11.21242188 13.42539062 -11.66796875 12.6484375 C-12.56981362 11.08545369 -13.45177933 9.51101595 -14.328125 7.93359375 C-12.4223257 6.56417507 -10.50305927 5.21348212 -8.578125 3.87109375 C-7.51078125 3.11699219 -6.4434375 2.36289062 -5.34375 1.5859375 C-2.328125 -0.06640625 -2.328125 -0.06640625 0 0 Z " fill="#0C0C0C" transform="translate(305.328125,307.06640625)"/>
<path d="M0 0 C0 2.31 0 4.62 0 7 C-2.31 7.33 -4.62 7.66 -7 8 C-8.14947895 11.55293493 -8.0868937 12.79976669 -6.5625 16.3125 C-6.046875 17.199375 -5.53125 18.08625 -5 19 C-3.68 19 -2.36 19 -1 19 C-1.33 17.35 -1.66 15.7 -2 14 C-0.02 13.01 1.96 12.02 4 11 C7.05534448 17.35511651 7.05534448 17.35511651 6.8203125 20.09375 C5.47529395 23.21931692 3.10851283 23.89179423 0.125 25.234375 C-2.82437522 26.29701754 -4.90445423 26.55031925 -8 26 C-12.68412706 23.27667031 -14.33643919 20.07823826 -16 15 C-16.69321219 10.75407533 -16.28944934 9.43417401 -13.875 5.8125 C-9.97063771 1.61034737 -5.80234904 -0.51197197 0 0 Z " fill="#0E0E0E" transform="translate(286,319)"/>
<path d="M0 0 C2.49547116 1.15986688 4.67141915 2.50970825 7 4 C6.01 5.65 5.02 7.3 4 9 C3.401875 8.690625 2.80375 8.38125 2.1875 8.0625 C-0.08956772 6.89790296 -0.08956772 6.89790296 -3 6 C-2.67 7.32 -2.34 8.64 -2 10 C-1.34 10 -0.68 10 0 10 C2.04690301 12.65339278 3.01817911 14.23647737 2.9375 17.625 C1.73563786 20.66971742 0.95541622 21.56018184 -2 23 C-6.6635507 23.52652992 -9.55693342 23.62559647 -13.5 21 C-14.325 20.34 -15.15 19.68 -16 19 C-15.34 17.35 -14.68 15.7 -14 14 C-10.00095031 14 -8.19799578 15.72586967 -5 18 C-6.45664409 15.50289585 -7.80731812 13.21332637 -9.75 11.0625 C-11 9 -11 9 -10.9375 5.9375 C-10 3 -10 3 -8.3125 1.125 C-5.21172273 -0.38348624 -3.42770428 -0.47046921 0 0 Z " fill="#0D0D0D" transform="translate(290,148)"/>
<path d="M0 0 C1.32 0.66 2.64 1.32 4 2 C3.835 2.598125 3.67 3.19625 3.5 3.8125 C2.8885876 6.11344336 2.8885876 6.11344336 3 9 C5.22068712 11.58618137 5.22068712 11.58618137 8 14.1875 C8.928125 15.08855469 9.85625 15.98960937 10.8125 16.91796875 C11.534375 17.60503906 12.25625 18.29210937 13 19 C11.63016497 22.16115776 11.0109362 22.9927092 8 25 C7.22076172 24.06027344 7.22076172 24.06027344 6.42578125 23.1015625 C5.72839844 22.28429687 5.03101563 21.46703125 4.3125 20.625 C3.62800781 19.81289063 2.94351562 19.00078125 2.23828125 18.1640625 C-0.12566947 15.87849758 -1.8466379 14.87132374 -5 14 C-7.2857711 14.76603959 -7.2857711 14.76603959 -9 16 C-9.66 14.35 -10.32 12.7 -11 11 C-7.37 7.37 -3.74 3.74 0 0 Z " fill="#0A0A0A" transform="translate(320,291)"/>
<path d="M0 0 C3.62276315 1.3255581 6.63505348 2.94346955 9.8125 5.125 C10.60269531 5.66382813 11.39289063 6.20265625 12.20703125 6.7578125 C12.79871094 7.16773438 13.39039063 7.57765625 14 8 C13.67 9.32 13.34 10.64 13 12 C11.68 12 10.36 12 9 12 C5.06374706 13.31208431 4.53480236 14.98486688 2.4375 18.5 C-0.7976081 23.89880405 -0.7976081 23.89880405 -3 25 C-4.32 24.01 -5.64 23.02 -7 22 C-6.2095848 17.60769276 -3.83238358 14.6861258 -1.27734375 11.12109375 C0.25794355 8.98434073 0.25794355 8.98434073 0 6 C-1.43750191 4.31201173 -1.43750191 4.31201173 -3 3 C-2.01 2.01 -1.02 1.02 0 0 Z " fill="#0A0A0A" transform="translate(307,157)"/>
<path d="M0 0 C0.66 0 1.32 0 2 0 C3.33203125 1.7578125 3.33203125 1.7578125 4.8125 4.125 C13.15204715 16.90301735 25.02771122 26.70304046 40.24609375 29.96484375 C44.15051597 30.73732606 48.06670329 31.3929793 52 32 C51.01 32.33 50.02 32.66 49 33 C49 33.66 49 34.32 49 35 C35.83853944 34.00291965 22.81550582 27.83395524 13 19 C12.24203125 18.32195312 11.4840625 17.64390625 10.703125 16.9453125 C5.60655779 12.13188791 1.98459468 7.34413844 -1 1 C-0.67 0.67 -0.34 0.34 0 0 Z " fill="#191919" transform="translate(187,283)"/>
<path d="M0 0 C0.66 0.33 1.32 0.66 2 1 C2 1.66 2 2.32 2 3 C1.12859375 3.47308594 0.2571875 3.94617188 -0.640625 4.43359375 C-8.96840809 9.03115055 -16.53662554 14.09491252 -24 20 C-24.66 19.34 -25.32 18.68 -26 18 C-25.67 17.01 -25.34 16.02 -25 15 C-26.32 14.67 -27.64 14.34 -29 14 C-28.67 12.35 -28.34 10.7 -28 9 C-24.35014884 7.64820327 -22.47171347 8.44686503 -19 10 C-16.4247112 10 -15.34246615 9.12685674 -13.15625 7.77734375 C-12.40472656 7.32166016 -11.65320313 6.86597656 -10.87890625 6.39648438 C-9.29122532 5.42275888 -7.7052866 4.44618704 -6.12109375 3.46679688 C-5.36957031 3.01240234 -4.61804688 2.55800781 -3.84375 2.08984375 C-2.81024414 1.45357056 -2.81024414 1.45357056 -1.75585938 0.80444336 C-1.17642578 0.53897705 -0.59699219 0.27351074 0 0 Z " fill="#EAEAEA" transform="translate(218,220)"/>
<path d="M0 0 C0.99 0 1.98 0 3 0 C3.66340768 13.68585475 2.67633801 28.79841674 -4 41 C-4.66 40.67 -5.32 40.34 -6 40 C-5.58909177 36.57576473 -5.13754178 33.40544443 -4.02734375 30.1328125 C-0.87535051 20.52103083 -0.57139154 10.02942526 0 0 Z " fill="#1A1A1A" transform="translate(337,243)"/>
<path d="M0 0 C2.03833424 1.2739589 4.03852126 2.61061923 6 4 C6 4.66 6 5.32 6 6 C6.99 6 7.98 6 9 6 C9 6.66 9 7.32 9 8 C7.42578125 9.515625 7.42578125 9.515625 5.3125 11.25 C2.64541326 13.49770384 0.32292108 15.67979363 -1.8125 18.4375 C-2.534375 19.283125 -3.25625 20.12875 -4 21 C-4.99 21 -5.98 21 -7 21 C-6 19 -6 19 -4 17 C-3.5895786 14.69993008 -3.26826238 12.38344865 -3 10.0625 C-2.22027534 3.33041302 -2.22027534 3.33041302 0 0 Z " fill="#F6F6F6" transform="translate(184,233)"/>
<path d="M0 0 C7.66462031 1.24081543 14.17425472 3.23867303 21 6.875 C21.62205322 7.20242187 22.24410645 7.52984375 22.88500977 7.8671875 C26.89044764 10.08935647 29.90038197 12.64802369 33 16 C33.763125 16.763125 34.52625 17.52625 35.3125 18.3125 C35.869375 18.869375 36.42625 19.42625 37 20 C32.89947253 19.40999605 30.32808811 17.18809051 27.0625 14.75 C18.22340186 8.39264864 8.67377881 4.99002656 -2 3 C-1.34 2.01 -0.68 1.02 0 0 Z " fill="#1B1B1B" transform="translate(254,187)"/>
<path d="M0 0 C2.375 0.0625 2.375 0.0625 5 1 C7.17198542 4.18557861 8.10800103 6.00639052 7.6875 9.875 C7.460625 10.57625 7.23375 11.2775 7 12 C4.6875 11.8125 4.6875 11.8125 2 11 C-0.13258157 8.35265737 -0.94177194 6.64050865 -1.25 3.25 C-1 1 -1 1 0 0 Z " fill="#F5F5F5" transform="translate(201,157)"/>
<path d="M0 0 C1.29744141 0.01353516 1.29744141 0.01353516 2.62109375 0.02734375 C3.26175781 0.03894531 3.90242188 0.05054688 4.5625 0.0625 C4.5625 0.3925 4.5625 0.7225 4.5625 1.0625 C3.81154053 1.23378418 3.06058105 1.40506836 2.28686523 1.58154297 C-1.1425395 2.36490819 -4.57127198 3.15117837 -8 3.9375 C-9.18142578 4.20691406 -10.36285156 4.47632813 -11.58007812 4.75390625 C-17.24577125 6.05526994 -22.87240309 7.37907862 -28.4375 9.0625 C-27.85546875 7.19921875 -27.85546875 7.19921875 -26.4375 5.0625 C-23.42578125 3.83203125 -23.42578125 3.83203125 -19.75 2.875 C-18.54988281 2.55144531 -17.34976562 2.22789062 -16.11328125 1.89453125 C-10.72006835 0.67375086 -5.53178826 -0.07577792 0 0 Z " fill="#1E1E1E" transform="translate(275.4375,206.9375)"/>
<path d="M0 0 C2.375 -0.1875 2.375 -0.1875 5 0 C7.69461986 4.04192978 7.23200889 6.2051496 7 11 C6 12 6 12 3.4375 12.0625 C2.633125 12.041875 1.82875 12.02125 1 12 C-0.3271261 8.0186217 -0.06915913 4.14954773 0 0 Z " fill="#F2F2F2" transform="translate(250,334)"/>
<path d="M0 0 C3.5586506 3.14773888 5.3533332 6.31774991 7.3125 10.625 C7.84488281 11.77226562 8.37726563 12.91953125 8.92578125 14.1015625 C9.28027344 15.05804688 9.63476562 16.01453125 10 17 C9.67 17.66 9.34 18.32 9 19 C8.34 19 7.68 19 7 19 C7 18.34 7 17.68 7 17 C5.53984709 17.28241641 4.08190207 17.57626614 2.625 17.875 C1.40683594 18.11863281 1.40683594 18.11863281 0.1640625 18.3671875 C-2.18673923 18.86658932 -2.18673923 18.86658932 -4 21 C-3.6875 19.125 -3.6875 19.125 -3 17 C-0.08235 15.0549 1.62537285 14.54723683 5 14 C4.55527344 13.24074219 4.11054688 12.48148438 3.65234375 11.69921875 C3.08644531 10.70535156 2.52054687 9.71148437 1.9375 8.6875 C1.36902344 7.70136719 0.80054688 6.71523437 0.21484375 5.69921875 C-1 3 -1 3 0 0 Z " fill="#2A2A2A" transform="translate(297,214)"/>
<path d="M0 0 C0.33 1.65 0.66 3.3 1 5 C0.38125 5.28875 -0.2375 5.5775 -0.875 5.875 C-3.13325765 6.93720042 -3.13325765 6.93720042 -5 9 C-5.99 8.34 -6.98 7.68 -8 7 C-10.11280345 6.36707617 -10.11280345 6.36707617 -12 6 C-11.34 5.67 -10.68 5.34 -10 5 C-9.835 4.34 -9.67 3.68 -9.5 3 C-9.335 2.34 -9.17 1.68 -9 1 C-6.04335481 -0.4783226 -3.25770263 -0.06032783 0 0 Z " fill="#EDEDED" transform="translate(304,231)"/>
<path d="M0 0 C1.32 0.66 2.64 1.32 4 2 C3.01 3.485 3.01 3.485 2 5 C1.41999894 8.57452503 1.04643089 12.14977039 0.66015625 15.75 C0.0028853 18.98579543 -0.40386489 20.07588896 -3 22 C-3.41136629 14.12309743 -2.436168 7.49701701 0 0 Z " fill="#272727" transform="translate(181,231)"/>
<path d="M0 0 C0.48082031 0.37382812 0.96164063 0.74765625 1.45703125 1.1328125 C-1.27707716 2.58632072 -3.88498521 3.61135983 -6.87109375 4.421875 C-7.6703125 4.64101562 -8.46953125 4.86015625 -9.29296875 5.0859375 C-10.11796875 5.30765625 -10.94296875 5.529375 -11.79296875 5.7578125 C-13.05367187 6.10199219 -13.05367187 6.10199219 -14.33984375 6.453125 C-16.40653384 7.01676775 -18.47461811 7.57529412 -20.54296875 8.1328125 C-20.27270508 6.22998047 -20.27270508 6.22998047 -19.54296875 4.1328125 C-16.72155513 2.93948347 -14.16159634 2.05742989 -11.23046875 1.2578125 C-10.45767578 1.020625 -9.68488281 0.7834375 -8.88867188 0.5390625 C-3.18983299 -1.08777715 -3.18983299 -1.08777715 0 0 Z " fill="#E6E6E6" transform="translate(253.54296875,208.8671875)"/>
<path d="M0 0 C-4.72786963 3.72943753 -9.0822532 3.35415147 -14.8125 3.1875 C-15.69615234 3.17396484 -16.57980469 3.16042969 -17.49023438 3.14648438 C-19.66042023 3.11129217 -21.83029033 3.05748985 -24 3 C-24 2.34 -24 1.68 -24 1 C-20.37588588 0.63634227 -16.75063063 0.28568634 -13.125 -0.0625 C-12.09246094 -0.16626953 -11.05992187 -0.27003906 -9.99609375 -0.37695312 C-9.00996094 -0.47041016 -8.02382812 -0.56386719 -7.0078125 -0.66015625 C-6.09660645 -0.74918213 -5.18540039 -0.83820801 -4.24658203 -0.92993164 C-2 -1 -2 -1 0 0 Z " fill="#090909" transform="translate(260,315)"/>
<path d="M0 0 C2.12570312 0.47603774 4.25054427 0.95592598 6.375 1.4375 C8.15003906 1.83775391 8.15003906 1.83775391 9.9609375 2.24609375 C13 3 13 3 15 4 C15 4.99 15 5.98 15 7 C6.585 5.02 6.585 5.02 -2 3 C-1.34 2.01 -0.68 1.02 0 0 Z " fill="#212121" transform="translate(254,187)"/>
<path d="M0 0 C-0.33 0.99 -0.66 1.98 -1 3 C-3.65234375 4.203125 -3.65234375 4.203125 -6.9375 5.25 C-8.01902344 5.60578125 -9.10054688 5.9615625 -10.21484375 6.328125 C-13 7 -13 7 -15 6 C-12.61827612 3.26455475 -10.29334709 2.07454642 -6.9375 0.75 C-6.05964844 0.39421875 -5.18179687 0.0384375 -4.27734375 -0.328125 C-2 -1 -2 -1 0 0 Z " fill="#252525" transform="translate(273,310)"/>
<path d="M0 0 C0.66 0.33 1.32 0.66 2 1 C1.01 4.3 0.02 7.6 -1 11 C-1.99 11 -2.98 11 -4 11 C-3.54177532 7.53058454 -3.10868317 4.32604951 -2 1 C-1.34 0.67 -0.68 0.34 0 0 Z " fill="#202020" transform="translate(335,272)"/>
<path d="M0 0 C4.29 0.66 8.58 1.32 13 2 C12.01 2.33 11.02 2.66 10 3 C10 3.66 10 4.32 10 5 C4.06 4.01 4.06 4.01 -2 3 C-1.34 2.67 -0.68 2.34 0 2 C0 1.34 0 0.68 0 0 Z " fill="#2F2F2F" transform="translate(226,313)"/>
<path d="M0 0 C3.81300782 3.2870757 5.22972246 6.39727838 7 11 C6.01 11.33 5.02 11.66 4 12 C3.13353333 10.56988027 2.28218171 9.13059381 1.4375 7.6875 C0.72400391 6.48673828 0.72400391 6.48673828 -0.00390625 5.26171875 C-1 3 -1 3 0 0 Z " fill="#202020" transform="translate(297,214)"/>
<path d="M0 0 C0.66 0.33 1.32 0.66 2 1 C0.89210592 4.32368224 0.51563783 4.61563093 -2.375 6.25 C-3.28378906 6.78367187 -3.28378906 6.78367187 -4.2109375 7.328125 C-6 8 -6 8 -9 7 C-6.04399553 4.50381844 -3.22113035 2.14742023 0 0 Z " fill="#191919" transform="translate(280,304)"/>
<path d="M0 0 C-0.33 0.66 -0.66 1.32 -1 2 C-4.0625 2.625 -4.0625 2.625 -7 3 C-7 4.65 -7 6.3 -7 8 C-9 5 -9 5 -9 1 C-5.57367167 -0.61798838 -3.61944899 -1.34053666 0 0 Z " fill="#272727" transform="translate(228,190)"/>
<path d="M0 0 C0.66 0 1.32 0 2 0 C2.99 3.63 3.98 7.26 5 11 C4.01 11 3.02 11 2 11 C0.57741188 7.17679443 -0.24042276 4.08718695 0 0 Z " fill="#121212" transform="translate(180,265)"/>
<path d="M0 0 C1.04449911 3.13349732 0.93423645 3.98968256 0 7 C-0.66 7 -1.32 7 -2 7 C-2.33 6.01 -2.66 5.02 -3 4 C-3.33 4.66 -3.66 5.32 -4 6 C-4.66 5.67 -5.32 5.34 -6 5 C-3.375 1.125 -3.375 1.125 0 0 Z " fill="#616161" transform="translate(305,235)"/>
<path d="M0 0 C2.475 0.495 2.475 0.495 5 1 C4.67 2.32 4.34 3.64 4 5 C2.68 5 1.36 5 0 5 C0 3.35 0 1.7 0 0 Z " fill="#EAEAEA" transform="translate(192,336)"/>
<path d="M0 0 C1.32 0 2.64 0 4 0 C2.95125002 2.62187494 2.35068687 3.79371361 -0.125 5.25 C-0.74375 5.4975 -1.3625 5.745 -2 6 C-1.125 1.125 -1.125 1.125 0 0 Z " fill="#242424" transform="translate(259,291)"/>
<path d="M0 0 C0.66 0 1.32 0 2 0 C1.45276317 3.37462715 0.9451 5.08235 -1 8 C-1 7.01 -1 6.02 -1 5 C-1.99 4.67 -2.98 4.34 -4 4 C-3.67 3.34 -3.34 2.68 -3 2 C-2.01 2 -1.02 2 0 2 C0 1.34 0 0.68 0 0 Z " fill="#3F3F3F" transform="translate(252,231)"/>
<path d="M0 0 C1.32 0.66 2.64 1.32 4 2 C3.67 2.99 3.34 3.98 3 5 C1.68 5 0.36 5 -1 5 C-0.67 3.35 -0.34 1.7 0 0 Z " fill="#E1E1E1" transform="translate(196,327)"/>
<path d="M0 0 C0.66 0 1.32 0 2 0 C3.65 2.97 5.3 5.94 7 9 C3.24440513 7.12220256 2.07034892 6.41607572 0 3 C0 2.01 0 1.02 0 0 Z " fill="#292929" transform="translate(171,285)"/>
<path d="M0 0 C2.76276177 0.52268466 5.3260876 1.10869587 8 2 C8 2.66 8 3.32 8 4 C2.25 3.125 2.25 3.125 0 2 C0 1.34 0 0.68 0 0 Z " fill="#0C0C0C" transform="translate(218,311)"/>
<path d="M0 0 C0.598125 0.350625 1.19625 0.70125 1.8125 1.0625 C-0.82654371 2.47627341 -3.25870629 3.43490135 -6.1875 4.0625 C-5.875 2.125 -5.875 2.125 -5.1875 0.0625 C-2.1875 -0.9375 -2.1875 -0.9375 0 0 Z " fill="#D9D9D9" transform="translate(239.1875,212.9375)"/>
<path d="M0 0 C0.33 0.99 0.66 1.98 1 3 C-1.475 4.485 -1.475 4.485 -4 6 C-4 5.01 -4 4.02 -4 3 C-2 1.3125 -2 1.3125 0 0 Z " fill="#212121" transform="translate(296,290)"/>
<path d="M0 0 C2.97 0.495 2.97 0.495 6 1 C5.67 1.99 5.34 2.98 5 4 C2.69 3.67 0.38 3.34 -2 3 C-1.34 2.01 -0.68 1.02 0 0 Z " fill="#303030" transform="translate(254,187)"/>
</svg>
